<mxfile host="www.draw.io" modified="2019-11-21T17:16:39.168Z" agent="Mozilla/5.0 (Windows NT 10.0; Win64; x64) AppleWebKit/537.36 (KHTML, like Gecko) Chrome/72.0.3626.96 Safari/537.36" etag="5HZphLniDE7fme1CvjV-" version="12.2.8" type="github" pages="1">
  <diagram id="wFg5V0NsvqYlevqbekFS" name="Page-1">
    <mxGraphModel dx="1391" dy="703" grid="1" gridSize="10" guides="1" tooltips="1" connect="1" arrows="1" fold="1" page="1" pageScale="1" pageWidth="827" pageHeight="1169" math="0" shadow="0">
      <root>
        <mxCell id="0"/>
        <mxCell id="1" parent="0"/>
        <mxCell id="RA7c7ZybeZmiuJUpMVYn-19" value="accept" style="edgeStyle=orthogonalEdgeStyle;rounded=0;orthogonalLoop=1;jettySize=auto;html=1;exitX=1;exitY=0.5;exitDx=0;exitDy=0;entryX=0;entryY=0.5;entryDx=0;entryDy=0;curved=1;strokeColor=#FF0000;strokeWidth=2;" parent="1" source="RA7c7ZybeZmiuJUpMVYn-1" target="RA7c7ZybeZmiuJUpMVYn-2" edge="1">
          <mxGeometry relative="1" as="geometry"/>
        </mxCell>
        <mxCell id="RA7c7ZybeZmiuJUpMVYn-20" style="edgeStyle=orthogonalEdgeStyle;curved=1;rounded=0;orthogonalLoop=1;jettySize=auto;html=1;exitX=1;exitY=0.5;exitDx=0;exitDy=0;entryX=0;entryY=0.5;entryDx=0;entryDy=0;strokeColor=#00CC00;strokeWidth=2;" parent="1" source="RA7c7ZybeZmiuJUpMVYn-1" target="RA7c7ZybeZmiuJUpMVYn-4" edge="1">
          <mxGeometry relative="1" as="geometry"/>
        </mxCell>
        <mxCell id="RA7c7ZybeZmiuJUpMVYn-21" style="edgeStyle=orthogonalEdgeStyle;curved=1;rounded=0;orthogonalLoop=1;jettySize=auto;html=1;exitX=1;exitY=0.5;exitDx=0;exitDy=0;entryX=0;entryY=0.5;entryDx=0;entryDy=0;strokeColor=#0000FF;strokeWidth=2;" parent="1" source="RA7c7ZybeZmiuJUpMVYn-1" target="RA7c7ZybeZmiuJUpMVYn-3" edge="1">
          <mxGeometry relative="1" as="geometry"/>
        </mxCell>
        <mxCell id="RA7c7ZybeZmiuJUpMVYn-1" value="&lt;b&gt;&lt;font style=&quot;font-size: 17px&quot;&gt;server port&lt;/font&gt;&lt;/b&gt;" style="rounded=1;whiteSpace=wrap;html=1;fillColor=#dae8fc;strokeColor=#6c8ebf;" parent="1" vertex="1">
          <mxGeometry x="158" y="110" width="110" height="60" as="geometry"/>
        </mxCell>
        <mxCell id="RA7c7ZybeZmiuJUpMVYn-22" value="创建流" style="edgeStyle=orthogonalEdgeStyle;curved=1;rounded=0;orthogonalLoop=1;jettySize=auto;html=1;exitX=1;exitY=0.5;exitDx=0;exitDy=0;entryX=0;entryY=0.5;entryDx=0;entryDy=0;strokeColor=#FF0000;strokeWidth=2;" parent="1" source="RA7c7ZybeZmiuJUpMVYn-2" target="RA7c7ZybeZmiuJUpMVYn-9" edge="1">
          <mxGeometry relative="1" as="geometry"/>
        </mxCell>
        <mxCell id="RA7c7ZybeZmiuJUpMVYn-2" value="&lt;b&gt;&lt;font style=&quot;font-size: 17px&quot;&gt;Socket&lt;/font&gt;&lt;/b&gt;" style="rounded=1;whiteSpace=wrap;html=1;strokeColor=#E6E6E6;fillColor=#CCCCCC;" parent="1" vertex="1">
          <mxGeometry x="333" y="40" width="80" height="40" as="geometry"/>
        </mxCell>
        <mxCell id="RA7c7ZybeZmiuJUpMVYn-23" style="edgeStyle=orthogonalEdgeStyle;curved=1;rounded=0;orthogonalLoop=1;jettySize=auto;html=1;exitX=1;exitY=0.5;exitDx=0;exitDy=0;entryX=0;entryY=0.5;entryDx=0;entryDy=0;strokeColor=#0000FF;strokeWidth=2;" parent="1" source="RA7c7ZybeZmiuJUpMVYn-3" target="RA7c7ZybeZmiuJUpMVYn-12" edge="1">
          <mxGeometry relative="1" as="geometry"/>
        </mxCell>
        <mxCell id="RA7c7ZybeZmiuJUpMVYn-3" value="&lt;b&gt;&lt;font style=&quot;font-size: 17px&quot;&gt;Socket&lt;/font&gt;&lt;/b&gt;" style="rounded=1;whiteSpace=wrap;html=1;strokeColor=#E6E6E6;fillColor=#CCCCCC;" parent="1" vertex="1">
          <mxGeometry x="333" y="120" width="80" height="40" as="geometry"/>
        </mxCell>
        <mxCell id="RA7c7ZybeZmiuJUpMVYn-24" style="edgeStyle=orthogonalEdgeStyle;curved=1;rounded=0;orthogonalLoop=1;jettySize=auto;html=1;exitX=1;exitY=0.5;exitDx=0;exitDy=0;entryX=0;entryY=0.5;entryDx=0;entryDy=0;strokeColor=#00CC00;strokeWidth=2;" parent="1" source="RA7c7ZybeZmiuJUpMVYn-4" target="RA7c7ZybeZmiuJUpMVYn-13" edge="1">
          <mxGeometry relative="1" as="geometry"/>
        </mxCell>
        <mxCell id="RA7c7ZybeZmiuJUpMVYn-4" value="&lt;b&gt;&lt;font style=&quot;font-size: 17px&quot;&gt;Socket&lt;/font&gt;&lt;/b&gt;" style="rounded=1;whiteSpace=wrap;html=1;strokeColor=#E6E6E6;fillColor=#CCCCCC;" parent="1" vertex="1">
          <mxGeometry x="333" y="200" width="80" height="40" as="geometry"/>
        </mxCell>
        <mxCell id="RA7c7ZybeZmiuJUpMVYn-28" style="edgeStyle=orthogonalEdgeStyle;curved=1;rounded=0;orthogonalLoop=1;jettySize=auto;html=1;exitX=1;exitY=0.5;exitDx=0;exitDy=0;entryX=0;entryY=0.5;entryDx=0;entryDy=0;strokeColor=#FF0000;strokeWidth=2;" parent="1" source="RA7c7ZybeZmiuJUpMVYn-5" target="RA7c7ZybeZmiuJUpMVYn-1" edge="1">
          <mxGeometry relative="1" as="geometry"/>
        </mxCell>
        <mxCell id="RA7c7ZybeZmiuJUpMVYn-5" value="&lt;b&gt;&lt;font style=&quot;font-size: 17px&quot;&gt;Client&lt;/font&gt;&lt;/b&gt;" style="rounded=1;whiteSpace=wrap;html=1;fillColor=#ffe6cc;strokeColor=#d79b00;" parent="1" vertex="1">
          <mxGeometry x="13" y="40" width="80" height="40" as="geometry"/>
        </mxCell>
        <mxCell id="RA7c7ZybeZmiuJUpMVYn-29" style="edgeStyle=orthogonalEdgeStyle;curved=1;rounded=0;orthogonalLoop=1;jettySize=auto;html=1;exitX=1;exitY=0.5;exitDx=0;exitDy=0;entryX=0;entryY=0.5;entryDx=0;entryDy=0;strokeColor=#0000FF;strokeWidth=2;" parent="1" source="RA7c7ZybeZmiuJUpMVYn-6" target="RA7c7ZybeZmiuJUpMVYn-1" edge="1">
          <mxGeometry relative="1" as="geometry">
            <mxPoint x="153" y="140" as="targetPoint"/>
          </mxGeometry>
        </mxCell>
        <mxCell id="RA7c7ZybeZmiuJUpMVYn-6" value="&lt;b&gt;&lt;font style=&quot;font-size: 17px&quot;&gt;Client&lt;/font&gt;&lt;/b&gt;" style="rounded=1;whiteSpace=wrap;html=1;fillColor=#ffe6cc;strokeColor=#d79b00;" parent="1" vertex="1">
          <mxGeometry x="13" y="120" width="80" height="40" as="geometry"/>
        </mxCell>
        <mxCell id="RA7c7ZybeZmiuJUpMVYn-30" style="edgeStyle=orthogonalEdgeStyle;curved=1;rounded=0;orthogonalLoop=1;jettySize=auto;html=1;exitX=1;exitY=0.5;exitDx=0;exitDy=0;entryX=0;entryY=0.5;entryDx=0;entryDy=0;strokeColor=#00CC00;strokeWidth=2;" parent="1" source="RA7c7ZybeZmiuJUpMVYn-7" target="RA7c7ZybeZmiuJUpMVYn-1" edge="1">
          <mxGeometry relative="1" as="geometry"/>
        </mxCell>
        <mxCell id="RA7c7ZybeZmiuJUpMVYn-7" value="&lt;b&gt;&lt;font style=&quot;font-size: 17px&quot;&gt;Client&lt;/font&gt;&lt;/b&gt;" style="rounded=1;whiteSpace=wrap;html=1;fillColor=#ffe6cc;strokeColor=#d79b00;" parent="1" vertex="1">
          <mxGeometry x="13" y="200" width="80" height="40" as="geometry"/>
        </mxCell>
        <mxCell id="RA7c7ZybeZmiuJUpMVYn-27" value="交由线程读取流" style="edgeStyle=orthogonalEdgeStyle;curved=1;rounded=0;orthogonalLoop=1;jettySize=auto;html=1;exitX=1;exitY=0.5;exitDx=0;exitDy=0;entryX=0;entryY=0.5;entryDx=0;entryDy=0;strokeColor=#FF0000;strokeWidth=2;" parent="1" source="RA7c7ZybeZmiuJUpMVYn-9" target="RA7c7ZybeZmiuJUpMVYn-14" edge="1">
          <mxGeometry relative="1" as="geometry"/>
        </mxCell>
        <mxCell id="RA7c7ZybeZmiuJUpMVYn-9" value="&lt;b&gt;&lt;font style=&quot;font-size: 17px&quot;&gt;InputStream&lt;/font&gt;&lt;/b&gt;" style="rounded=1;whiteSpace=wrap;html=1;fillColor=#B3B3B3;" parent="1" vertex="1">
          <mxGeometry x="493" y="40" width="120" height="40" as="geometry"/>
        </mxCell>
        <mxCell id="RA7c7ZybeZmiuJUpMVYn-26" style="edgeStyle=orthogonalEdgeStyle;curved=1;rounded=0;orthogonalLoop=1;jettySize=auto;html=1;exitX=1;exitY=0.5;exitDx=0;exitDy=0;entryX=0;entryY=0.5;entryDx=0;entryDy=0;strokeColor=#0000FF;strokeWidth=2;" parent="1" source="RA7c7ZybeZmiuJUpMVYn-12" target="RA7c7ZybeZmiuJUpMVYn-17" edge="1">
          <mxGeometry relative="1" as="geometry"/>
        </mxCell>
        <mxCell id="RA7c7ZybeZmiuJUpMVYn-12" value="&lt;b&gt;&lt;font style=&quot;font-size: 17px&quot;&gt;InputStream&lt;/font&gt;&lt;/b&gt;" style="rounded=1;whiteSpace=wrap;html=1;fillColor=#B3B3B3;" parent="1" vertex="1">
          <mxGeometry x="493" y="120" width="120" height="40" as="geometry"/>
        </mxCell>
        <mxCell id="RA7c7ZybeZmiuJUpMVYn-25" style="edgeStyle=orthogonalEdgeStyle;curved=1;rounded=0;orthogonalLoop=1;jettySize=auto;html=1;exitX=1;exitY=0.5;exitDx=0;exitDy=0;entryX=0;entryY=0.5;entryDx=0;entryDy=0;strokeColor=#00CC00;strokeWidth=2;" parent="1" source="RA7c7ZybeZmiuJUpMVYn-13" target="RA7c7ZybeZmiuJUpMVYn-18" edge="1">
          <mxGeometry relative="1" as="geometry"/>
        </mxCell>
        <mxCell id="RA7c7ZybeZmiuJUpMVYn-13" value="&lt;b&gt;&lt;font style=&quot;font-size: 17px&quot;&gt;InputStream&lt;/font&gt;&lt;/b&gt;" style="rounded=1;whiteSpace=wrap;html=1;fillColor=#B3B3B3;" parent="1" vertex="1">
          <mxGeometry x="493" y="200" width="120" height="40" as="geometry"/>
        </mxCell>
        <mxCell id="RA7c7ZybeZmiuJUpMVYn-14" value="&lt;b&gt;&lt;font style=&quot;font-size: 17px&quot;&gt;Thread&lt;/font&gt;&lt;/b&gt;" style="rounded=1;whiteSpace=wrap;html=1;fillColor=#999999;" parent="1" vertex="1">
          <mxGeometry x="733" y="40" width="80" height="40" as="geometry"/>
        </mxCell>
        <mxCell id="RA7c7ZybeZmiuJUpMVYn-17" value="&lt;b&gt;&lt;font style=&quot;font-size: 17px&quot;&gt;Thread&lt;/font&gt;&lt;/b&gt;" style="rounded=1;whiteSpace=wrap;html=1;fillColor=#999999;" parent="1" vertex="1">
          <mxGeometry x="733" y="120" width="80" height="40" as="geometry"/>
        </mxCell>
        <mxCell id="RA7c7ZybeZmiuJUpMVYn-18" value="&lt;b&gt;&lt;font style=&quot;font-size: 17px&quot;&gt;Thread&lt;/font&gt;&lt;/b&gt;" style="rounded=1;whiteSpace=wrap;html=1;fillColor=#999999;" parent="1" vertex="1">
          <mxGeometry x="733" y="200" width="80" height="40" as="geometry"/>
        </mxCell>
      </root>
    </mxGraphModel>
  </diagram>
</mxfile>
